<svg version="1.1" id="Layer_1" xmlns="http://www.w3.org/2000/svg" xmlns:xlink="http://www.w3.org/1999/xlink" x="0px" y="0px"
	 width="100%" viewBox="0 0 529 95" enable-background="new 0 0 529 95" xml:space="preserve">
<path fill="#030303" opacity="1.000000" stroke="none" 
	d="
M1.000000,42.000000 
	C1.000000,28.345877 1.000000,14.691753 1.000000,1.000000 
	C146.020889,1.000000 291.041779,1.000000 436.913818,1.242826 
	C431.724304,8.644956 435.112396,16.901226 434.152802,24.651672 
	C434.562622,24.799345 434.972412,24.947016 435.382233,25.094688 
	C443.588165,17.063129 451.794098,9.031570 460.000000,1.000006 
	C469.020905,1.000000 478.041779,1.000000 487.899414,1.226995 
	C487.701111,2.693506 486.781158,4.055306 485.613708,5.154081 
	C469.513885,20.306904 453.370087,35.412975 437.275360,50.571209 
	C436.117950,51.661293 434.432190,53.042236 434.393250,54.330311 
	C434.135101,62.870945 434.259644,71.423149 434.259644,80.839165 
	C435.929840,79.429314 436.818726,78.745331 437.633087,77.981842 
	C455.944031,60.814991 474.280823,43.675552 492.536346,26.449945 
	C501.437317,18.051130 510.183655,9.488485 519.000000,0.999998 
	C522.612122,1.000000 526.224304,1.000000 530.000000,1.000000 
	C530.000000,7.019731 530.000000,13.040490 529.706238,19.353760 
	C528.946594,20.100128 528.480713,20.553984 527.715576,21.156759 
	C520.266235,27.991827 513.097290,34.657898 505.969849,41.368004 
	C486.637177,59.568695 467.322083,77.788048 448.000000,96.000000 
	C299.000000,96.000000 149.999985,96.000000 1.000000,96.000000 
	C1.000000,86.252861 1.000000,76.595085 1.298502,66.165352 
	C4.025728,69.287415 5.973512,73.606995 8.972598,76.996338 
	C18.281061,87.516060 30.750652,89.770668 43.982452,88.922989 
	C62.539124,87.734184 80.290947,77.263702 86.111740,55.960659 
	C90.771049,38.908424 85.196533,22.826555 71.352257,15.165999 
	C50.516804,3.636970 13.714938,9.770742 3.473713,39.358089 
	C3.113285,40.399384 1.845101,41.126469 1.000000,42.000000 
M318.491364,23.077513 
	C315.906982,20.756077 313.581848,18.031010 310.696686,16.177866 
	C289.981232,2.872303 246.310745,8.486259 239.206528,47.044868 
	C236.053802,64.156532 243.638229,79.777802 258.672546,85.521675 
	C275.594910,91.986862 292.125458,90.349945 307.181549,80.133896 
	C325.584839,67.646690 330.885681,40.958298 318.491364,23.077513 
M93.321480,64.829285 
	C91.892273,72.123924 90.463066,79.418571 88.912437,87.333000 
	C97.111305,87.333000 104.896355,87.426521 112.672058,87.199684 
	C113.523132,87.174858 114.779449,85.421570 115.063629,84.275520 
	C116.325302,79.187386 117.301140,74.028358 118.396645,68.817444 
	C123.247169,68.817444 127.801903,69.306549 132.206635,68.702248 
	C138.734482,67.806671 145.470001,66.955757 151.557327,64.624268 
	C164.213074,59.777035 171.275757,46.968735 169.853928,33.421490 
	C168.718552,22.603622 161.021591,15.023603 148.318207,12.417102 
	C145.726089,11.885247 143.033371,11.645933 140.384186,11.624439 
	C129.561615,11.536633 118.735306,11.718254 107.916275,11.503356 
	C104.667252,11.438820 103.744804,12.682278 103.176941,15.624102 
	C100.060394,31.769243 96.729935,47.873089 93.321480,64.829285 
M382.024475,61.514366 
	C382.080658,66.953873 379.072357,68.726738 374.082947,68.207550 
	C372.760498,68.069939 371.411469,68.186790 370.089386,68.047157 
	C361.949280,67.187347 356.862488,61.534481 356.842743,53.380005 
	C356.803345,37.117878 369.569000,27.323154 385.383606,31.384651 
	C386.606995,31.698847 388.619446,31.741314 389.275452,31.015518 
	C393.994232,25.794714 398.457214,20.342705 403.142426,14.797059 
	C393.007019,9.871078 382.945618,9.239087 372.718262,10.121417 
	C351.523224,11.949952 335.679840,26.073868 331.489532,46.695568 
	C327.749847,65.099831 336.125977,80.367668 353.848419,86.537170 
	C365.571198,90.618080 377.401031,89.640884 389.157440,86.011040 
	C396.842133,83.638374 402.136505,79.904327 402.855835,70.827148 
	C403.474274,63.022957 405.687531,55.345150 407.237885,47.394474 
	C399.467712,47.394474 392.359863,47.394474 385.016266,47.394474 
	C384.050842,51.917366 383.115173,56.300873 382.024475,61.514366 
M224.415344,67.313988 
	C215.860275,67.313988 207.305206,67.313988 198.345169,67.313988 
	C202.126053,48.339069 205.742020,30.191818 209.450439,11.580596 
	C201.876785,11.580596 195.075684,11.772650 188.293198,11.500724 
	C184.827988,11.361795 183.421753,12.291847 182.739075,15.908671 
	C179.473267,33.211262 175.832626,50.442852 172.373367,67.709335 
	C171.089417,74.118103 169.936935,80.553230 168.727859,86.958542 
	C189.214569,86.958542 208.932510,86.958542 228.716980,86.958542 
	C230.012146,80.319328 231.237091,74.040062 232.549210,67.313988 
	C229.678467,67.313988 227.533890,67.313988 224.415344,67.313988 
z"/>
<path fill="#FCFCFC" opacity="1.000000" stroke="none" 
	d="
M1.000000,42.468636 
	C1.845101,41.126469 3.113285,40.399384 3.473713,39.358089 
	C13.714938,9.770742 50.516804,3.636970 71.352257,15.165999 
	C85.196533,22.826555 90.771049,38.908424 86.111740,55.960659 
	C80.290947,77.263702 62.539124,87.734184 43.982452,88.922989 
	C30.750652,89.770668 18.281061,87.516060 8.972598,76.996338 
	C5.973512,73.606995 4.025728,69.287415 1.298502,65.696693 
	C1.000000,58.312424 1.000000,50.624847 1.000000,42.468636 
M58.262070,58.551811 
	C59.380653,54.592293 61.022194,50.696259 61.512146,46.660423 
	C62.633045,37.427284 56.656429,30.937801 47.364616,30.650290 
	C35.981930,30.298080 27.453583,39.150299 26.962542,51.827152 
	C26.474548,64.425339 35.675236,71.595467 47.543468,67.161301 
	C51.440510,65.705299 54.468491,61.923214 58.262070,58.551811 
z"/>
<path fill="#FAFAFA" opacity="1.000000" stroke="none" 
	d="
M518.531372,0.999998 
	C510.183655,9.488485 501.437317,18.051130 492.536346,26.449945 
	C474.280823,43.675552 455.944031,60.814991 437.633087,77.981842 
	C436.818726,78.745331 435.929840,79.429314 434.259644,80.839165 
	C434.259644,71.423149 434.135101,62.870945 434.393250,54.330311 
	C434.432190,53.042236 436.117950,51.661293 437.275360,50.571209 
	C453.370087,35.412975 469.513885,20.306904 485.613708,5.154081 
	C486.781158,4.055306 487.701111,2.693506 488.368042,1.226995 
	C498.020905,1.000000 508.041779,1.000000 518.531372,0.999998 
z"/>
<path fill="#FBFBFB" opacity="1.000000" stroke="none" 
	d="
M448.468658,96.000000 
	C467.322083,77.788048 486.637177,59.568695 505.969849,41.368004 
	C513.097290,34.657898 520.266235,27.991827 528.046265,21.191067 
	C529.117493,21.050970 529.558716,21.025484 530.000000,21.000000 
	C530.000000,29.687563 530.000000,38.375126 529.720703,47.248768 
	C512.634155,63.112125 495.823486,78.785774 479.051117,94.500267 
	C478.792633,94.742447 479.006561,95.488892 479.000000,96.000000 
	C468.979095,96.000000 458.958221,96.000000 448.468658,96.000000 
z"/>
<path fill="#030303" opacity="1.000000" stroke="none" 
	d="
M479.468658,96.000000 
	C479.006561,95.488892 478.792633,94.742447 479.051117,94.500267 
	C495.823486,78.785774 512.634155,63.112125 529.720703,47.717422 
	C530.000000,57.020893 530.000000,66.041786 529.642822,75.460464 
	C521.857056,82.572174 514.428528,89.286095 507.000000,96.000008 
	C497.979095,96.000000 488.958221,96.000000 479.468658,96.000000 
z"/>
<path fill="#F4F4F4" opacity="1.000000" stroke="none" 
	d="
M459.531372,1.000006 
	C451.794098,9.031570 443.588165,17.063129 435.382233,25.094688 
	C434.972412,24.947016 434.562622,24.799345 434.152802,24.651672 
	C435.112396,16.901226 431.724304,8.644956 437.382446,1.242826 
	C444.354248,1.000000 451.708496,1.000000 459.531372,1.000006 
z"/>
<path fill="#F5F5F5" opacity="1.000000" stroke="none" 
	d="
M507.468750,96.000008 
	C514.428528,89.286095 521.857056,82.572174 529.642822,75.929123 
	C530.000000,82.598045 530.000000,89.196083 530.000000,96.000000 
	C522.647095,96.000000 515.292297,96.000000 507.468750,96.000008 
z"/>
<path fill="#C9C9C9" opacity="1.000000" stroke="none" 
	d="
M530.000000,20.750000 
	C529.558716,21.025484 529.117493,21.050970 528.345520,21.042149 
	C528.480713,20.553984 528.946594,20.100128 529.706238,19.823135 
	C530.000000,20.000000 530.000000,20.500000 530.000000,20.750000 
z"/>
<path fill="#FCFCFC" opacity="1.000000" stroke="none" 
	d="
M318.698059,23.373648 
	C330.885681,40.958298 325.584839,67.646690 307.181549,80.133896 
	C292.125458,90.349945 275.594910,91.986862 258.672546,85.521675 
	C243.638229,79.777802 236.053802,64.156532 239.206528,47.044868 
	C246.310745,8.486259 289.981232,2.872303 310.696686,16.177866 
	C313.581848,18.031010 315.906982,20.756077 318.698059,23.373648 
M265.865631,60.132843 
	C268.284546,65.607010 272.645416,67.987694 278.469269,68.192223 
	C289.749573,68.588371 298.044006,60.698315 299.137543,48.451733 
	C299.892761,39.993938 297.609314,34.975597 291.663879,32.026741 
	C285.711243,29.074322 276.876190,30.500816 271.822571,35.532879 
	C265.122925,42.203949 263.485504,50.329250 265.865631,60.132843 
z"/>
<path fill="#FCFCFC" opacity="1.000000" stroke="none" 
	d="
M93.397202,64.410202 
	C96.729935,47.873089 100.060394,31.769243 103.176941,15.624102 
	C103.744804,12.682278 104.667252,11.438820 107.916275,11.503356 
	C118.735306,11.718254 129.561615,11.536633 140.384186,11.624439 
	C143.033371,11.645933 145.726089,11.885247 148.318207,12.417102 
	C161.021591,15.023603 168.718552,22.603622 169.853928,33.421490 
	C171.275757,46.968735 164.213074,59.777035 151.557327,64.624268 
	C145.470001,66.955757 138.734482,67.806671 132.206635,68.702248 
	C127.801903,69.306549 123.247169,68.817444 118.396645,68.817444 
	C117.301140,74.028358 116.325302,79.187386 115.063629,84.275520 
	C114.779449,85.421570 113.523132,87.174858 112.672058,87.199684 
	C104.896355,87.426521 97.111305,87.333000 88.912437,87.333000 
	C90.463066,79.418571 91.892273,72.123924 93.397202,64.410202 
M131.337326,48.997559 
	C133.615921,48.668415 136.036636,48.718830 138.143173,47.930141 
	C142.368317,46.348255 144.070236,42.885254 143.856705,38.470871 
	C143.641373,34.019028 140.817276,31.913898 136.800201,31.531775 
	C133.240891,31.193190 129.623917,31.460793 125.767792,31.460793 
	C124.612572,37.175972 123.470459,42.826283 122.222992,48.997826 
	C125.181709,48.997826 127.804474,48.997826 131.337326,48.997559 
z"/>
<path fill="#FBFBFB" opacity="1.000000" stroke="none" 
	d="
M382.101990,61.099373 
	C383.115173,56.300873 384.050842,51.917366 385.016266,47.394474 
	C392.359863,47.394474 399.467712,47.394474 407.237885,47.394474 
	C405.687531,55.345150 403.474274,63.022957 402.855835,70.827148 
	C402.136505,79.904327 396.842133,83.638374 389.157440,86.011040 
	C377.401031,89.640884 365.571198,90.618080 353.848419,86.537170 
	C336.125977,80.367668 327.749847,65.099831 331.489532,46.695568 
	C335.679840,26.073868 351.523224,11.949952 372.718262,10.121417 
	C382.945618,9.239087 393.007019,9.871078 403.142426,14.797059 
	C398.457214,20.342705 393.994232,25.794714 389.275452,31.015518 
	C388.619446,31.741314 386.606995,31.698847 385.383606,31.384651 
	C369.569000,27.323154 356.803345,37.117878 356.842743,53.380005 
	C356.862488,61.534481 361.949280,67.187347 370.089386,68.047157 
	C371.411469,68.186790 372.760498,68.069939 374.082947,68.207550 
	C379.072357,68.726738 382.080658,66.953873 382.101990,61.099373 
z"/>
<path fill="#FBFBFB" opacity="1.000000" stroke="none" 
	d="
M224.902328,67.313988 
	C227.533890,67.313988 229.678467,67.313988 232.549210,67.313988 
	C231.237091,74.040062 230.012146,80.319328 228.716980,86.958542 
	C208.932510,86.958542 189.214569,86.958542 168.727859,86.958542 
	C169.936935,80.553230 171.089417,74.118103 172.373367,67.709335 
	C175.832626,50.442852 179.473267,33.211262 182.739075,15.908671 
	C183.421753,12.291847 184.827988,11.361795 188.293198,11.500724 
	C195.075684,11.772650 201.876785,11.580596 209.450439,11.580596 
	C205.742020,30.191818 202.126053,48.339069 198.345169,67.313988 
	C207.305206,67.313988 215.860275,67.313988 224.902328,67.313988 
z"/>
<path fill="#030303" opacity="1.000000" stroke="none" 
	d="
M58.077976,58.878315 
	C54.468491,61.923214 51.440510,65.705299 47.543468,67.161301 
	C35.675236,71.595467 26.474548,64.425339 26.962542,51.827152 
	C27.453583,39.150299 35.981930,30.298080 47.364616,30.650290 
	C56.656429,30.937801 62.633045,37.427284 61.512146,46.660423 
	C61.022194,50.696259 59.380653,54.592293 58.077976,58.878315 
z"/>
<path fill="#030303" opacity="1.000000" stroke="none" 
	d="
M265.720673,59.750790 
	C263.485504,50.329250 265.122925,42.203949 271.822571,35.532879 
	C276.876190,30.500816 285.711243,29.074322 291.663879,32.026741 
	C297.609314,34.975597 299.892761,39.993938 299.137543,48.451733 
	C298.044006,60.698315 289.749573,68.588371 278.469269,68.192223 
	C272.645416,67.987694 268.284546,65.607010 265.720673,59.750790 
z"/>
<path fill="#090909" opacity="1.000000" stroke="none" 
	d="
M130.882294,48.997692 
	C127.804474,48.997826 125.181709,48.997826 122.222992,48.997826 
	C123.470459,42.826283 124.612572,37.175972 125.767792,31.460793 
	C129.623917,31.460793 133.240891,31.193190 136.800201,31.531775 
	C140.817276,31.913898 143.641373,34.019028 143.856705,38.470871 
	C144.070236,42.885254 142.368317,46.348255 138.143173,47.930141 
	C136.036636,48.718830 133.615921,48.668415 130.882294,48.997692 
z"/>
</svg>